<svg width="1em" height="1em" fill="currentColor" viewBox="0 0 16 16" version="1.1" xmlns="http://www.w3.org/2000/svg"
    xmlns:xlink="http://www.w3.org/1999/xlink">
    <title>自然</title>
    <g stroke-width="1" fill-rule="evenodd">
        <path
            d="M13.4478643,2.00905165 C13.6978119,1.95906215 13.9409588,2.12116015 13.9909483,2.37110766 C14.0409378,2.62105517 13.8788399,2.86420216 13.6288923,2.91419167 C12.1823937,3.2034914 10.8789463,3.92762885 9.71093729,5.09563782 C9.0268289,5.77974622 8.6300524,6.57997521 8.2563197,7.86462973 L7.86665776,9.3082827 C7.84495189,9.38687424 7.823657,9.46270895 7.80267264,9.53601352 L7.67968924,9.94729275 C7.47824892,10.5882003 7.28777225,11.0214311 7.0078136,11.473672 C6.16004475,12.8431448 4.6541593,13.6797478 2.52931631,13.9949426 C2.27717781,14.0323443 2.0424591,13.8582657 2.0050574,13.6061272 C1.9676557,13.3539887 2.14173427,13.11927 2.39387277,13.0818683 C4.27009444,12.8035535 5.53340495,12.1017143 6.22296333,10.9878123 C6.43622735,10.6433089 6.59291349,10.297969 6.75608987,9.80259155 L6.86652775,9.44847482 L6.9830413,9.0400786 L7.28629183,7.90333907 C7.72335153,6.30959125 8.18621767,5.31494595 9.05823154,4.44293208 C10.3517301,3.14943354 11.8174786,2.3351288 13.4478643,2.00905165 Z"
            fill-rule="nonzero"></path>
    </g>
</svg>