<svg width="1em" height="1em" fill="currentColor" viewBox="0 0 16 16" version="1.1" xmlns="http://www.w3.org/2000/svg"
    xmlns:xlink="http://www.w3.org/1999/xlink">
    <title>弹性</title>
    <g stroke-width="1" fill-rule="evenodd">
        <path
            d="M4.21523718,2 C5.44051159,2 6.25823987,3.47927139 6.82933739,6.37515644 L6.93683593,6.95332274 L7.03843439,7.56676657 C7.0548902,7.6719414 7.07111097,7.77858191 7.08710211,7.88668601 C7.21968992,8.41030918 7.28617936,8.45867145 7.47680766,8.35784351 C7.86076833,8.15475736 8.42930695,7.48974342 9.13463138,6.38165504 L9.27750592,6.15413529 C11.0930604,3.22484919 12.8773527,3.22484919 13.9721569,6.23974583 C14.0591601,6.47933746 13.9354649,6.74409568 13.6958758,6.83109988 C13.4562867,6.91810408 13.1915313,6.79440754 13.104528,6.55481591 L12.9829481,6.23665801 C12.2734744,4.47854511 11.5510907,4.43316799 10.374837,6.15787903 L10.1686651,6.47089411 L10.0620904,6.64042645 C9.20742966,8.01936925 8.5088614,8.85620379 7.90838368,9.17381108 C7.08897621,9.60721565 6.45352912,9.145012 6.18316722,8.06778689 L6.13598972,7.75921025 L6.03799118,7.17094747 C6.00454439,6.98127412 5.97033636,6.79801111 5.93542522,6.62114672 L5.82864062,6.1097377 C5.81051101,6.02769827 5.79222016,5.94725557 5.77377533,5.86840812 L5.66131672,5.41445485 L5.54551141,4.99871751 C5.13474299,3.61043268 4.66888764,2.9230736 4.21523718,2.9230736 C4.09155276,2.9230736 3.96855901,3.07785341 3.8503084,3.38260745 L3.78630281,3.56368152 L3.72338417,3.77432923 L3.6616986,4.0143773 L3.60139225,4.2836524 L3.54261127,4.58198125 L3.45761955,5.08357117 L3.40329138,5.45377615 L3.32566392,6.06236791 L3.27670195,6.50336588 L3.23014221,6.97237776 L3.1651265,7.72804257 L3.12521174,8.26633102 L3.07084854,9.12509833 L3.0235345,10.0449473 L2.99615158,10.6918253 L2.96168222,11.7121772 L2.94331913,12.4255156 L2.92881973,13.1651348 C2.92673325,13.2905852 2.92481385,13.4171233 2.92306457,13.5447456 C2.91957107,13.7996214 2.71012356,14.003407 2.45525045,13.9999577 C2.20037734,13.9964199 1.9965939,13.7869702 2.00004315,13.5320944 L2.01295563,12.7322143 L2.03881114,11.5885797 L2.07288429,10.511948 L2.11557315,9.50184728 L2.16727579,8.55780543 L2.20694843,7.96491047 L2.25092207,7.40102536 L2.29931463,6.86601022 L2.35224406,6.35972521 L2.40982832,5.88203045 C2.41982015,5.80478941 2.43001085,5.7287338 2.44040287,5.65386071 L2.5051905,5.21878908 L2.57492782,4.81195805 L2.64973276,4.43322775 L2.72972329,4.08245831 C2.75726416,3.97017977 2.78568895,3.86253806 2.81501733,3.75950988 L2.90573283,3.46424258 C3.23286226,2.47908585 3.66177835,2 4.21523718,2 Z"
            fill-rule="nonzero"></path>
    </g>
</svg>