<svg width="1em" height="1em" fill="currentColor" viewBox="0 0 1024 1024" version="1.1" xmlns="http://www.w3.org/2000/svg" xmlns:xlink="http://www.w3.org/1999/xlink">
    <title>分步</title>
    <path d="M512 64c246.4 0 448 201.6 448 448s-201.6 448-448 448-448-201.6-448-448 201.6-448 448-448z m0 64c-211.2 0-384 172.8-384 384s172.8 384 384 384 384-172.8 384-384-172.8-384-384-384z m160 512a32 32 0 1 1 0 64h-320a32 32 0 1 1 0-64h320z m0-160a32 32 0 1 1 0 64h-320a32 32 0 0 1 0-64h320z m0-160a32 32 0 1 1 0 64h-320a32 32 0 0 1 0-64h320z"></path>
</svg>