<svg width="1em" height="1em" fill="currentColor" viewBox="0 0 16 16" version="1.1" xmlns="http://www.w3.org/2000/svg"
    xmlns:xlink="http://www.w3.org/1999/xlink">
    <title>弹跳运动</title>
    <g stroke-width="1" fill-rule="evenodd">
        <path
            d="M2.0366224,2.28173144 C2.13597536,2.04701481 2.40680744,1.93727445 2.64154279,2.03661948 C6.89575719,3.83709423 9.11655382,7.05881272 9.27454286,11.6300206 L9.27750939,11.7837549 L9.3317954,11.7090035 C11.0317275,9.39965703 12.687758,9.74515103 13.8947384,12.8361377 L13.9711659,13.0371642 C14.0596619,13.2761852 13.9376218,13.5416844 13.6985818,13.6301734 C13.4595417,13.7186623 13.1940213,13.596632 13.1055253,13.357611 L12.9724746,13.0120551 C11.9982867,10.5842387 11.050433,10.4957059 9.66483363,12.8502948 L9.47313139,13.1865282 L9.27574104,13.5531067 C9.24235411,13.6167351 9.20871929,13.6816304 9.17483111,13.7477937 C8.9444746,14.1975418 8.2627393,14.0033002 8.30405892,13.4996912 C8.73265895,8.27585763 6.7395996,4.77325947 2.28175391,2.88660359 C2.04701856,2.78725856 1.93726945,2.51644807 2.0366224,2.28173144 Z"
            fill-rule="nonzero"></path>
    </g>
</svg>